<?xml version="1.0" encoding="utf-8"?>
<!-- Generator: Adobe Illustrator 25.2.2, SVG Export Plug-In . SVG Version: 6.00 Build 0)  -->
<svg version="1.1" id="Calque_1" xmlns="http://www.w3.org/2000/svg" xmlns:xlink="http://www.w3.org/1999/xlink" x="0px" y="0px"
	 viewBox="0 0 56 56" style="enable-background:new 0 0 56 56;" xml:space="preserve">
<style type="text/css">
	.st0{fill:#FFFFFF;}
	.st1{display:none;}
	.st2{display:inline;fill:none;}
	.st3{fill:#B00739;}
	.st4{fill:#8C7A99;}
</style>
<g>
	<rect id="canvas_background" x="-1" y="-1" class="st0" width="58" height="58"/>
	<g id="canvasGrid" class="st1">
		<rect class="st2" width="56" height="56"/>
	</g>
</g>
<g id="g10" transform="matrix(1.25,0,0,-1.25,0,362.99999)">
	<g id="g5820">
		<g id="g5798">
			<path id="path224" class="st3" d="M34.2,263.1c-0.9,1.7-3.2,2.6-5.2,1.6c-2-0.9-3.4-3.5-2.5-5.2c0.9-1.7,3.8-2.2,5.7-1.4
				C34.2,259.1,35.1,261.3,34.2,263.1"/>
			<path id="path230" class="st3" d="M42.8,267.2c-2.3,4.8-7.2,7.5-12.3,7.5c-2,0-4-0.3-5.8-1.3c-1.9-0.9-3.5-2.2-4.7-3.6l4.7-3.7
				c0.7,0.8,1.5,1.5,2.6,2c1.1,0.5,2.1,0.7,3.2,0.7c2.8,0,5.5-1.6,6.8-4.2c0.5-0.9,0.7-2.1,0.7-3.1c0-2.8-1.6-5.3-4.3-6.6
				c-1-0.5-2.1-0.7-3.2-0.7v-6c1.9,0,3.9,0.3,5.8,1.3c4.9,2.2,7.7,7.1,7.7,11.9C44.2,263.4,43.8,265.2,42.8,267.2"/>
		</g>
		<g id="g5794">
			<path id="path236" class="st4" d="M18.4,276.5c-0.9,1.9-3.9,2.3-6,1.4s-3-3.2-2.1-5.2c0.9-1.9,3.3-2.7,5.4-1.6
				C17.9,272.1,19.4,274.6,18.4,276.5"/>
			<path id="path242" class="st4" d="M20,269.7c-0.7-0.8-1.5-1.5-2.6-2s-2.1-0.7-3.2-0.7c-2.8,0-5.5,1.6-6.8,4.2
				c-0.5,0.9-0.7,2.1-0.7,3.1c0,2.8,1.6,5.3,4.3,6.6c1,0.5,2.1,0.7,3.2,0.7v6c-1.9,0-3.9-0.3-5.8-1.3c-4.9-2.2-7.8-7.1-7.7-11.9
				c0-2,0.4-3.8,1.3-5.7c2.3-4.8,7.2-7.5,12.3-7.5l0,0c2,0,4,0.3,5.8,1.3c1.9,0.9,3.5,2.2,4.7,3.6L20,269.7L20,269.7z"/>
		</g>
	</g>
</g>
</svg>
