<?xml version="1.0" encoding="utf-8"?>
<!-- Generator: Adobe Illustrator 25.2.2, SVG Export Plug-In . SVG Version: 6.00 Build 0)  -->
<svg version="1.1" id="Calque_1" xmlns="http://www.w3.org/2000/svg" xmlns:xlink="http://www.w3.org/1999/xlink" x="0px" y="0px"
	 viewBox="0 0 56 56" style="enable-background:new 0 0 56 56;" xml:space="preserve">
<style type="text/css">
	.st0{fill:#FFFFFF;}
	.st1{display:none;}
	.st2{display:inline;fill:none;}
	.st3{fill:#EF3340;}
	.st4{fill:#10069F;}
</style>
<g>
	<rect id="canvas_background" x="-1" y="-1" class="st0" width="58" height="58"/>
	<g id="canvasGrid" class="st1">
		<rect class="st2" width="56" height="56"/>
	</g>
</g>
<g id="g7568" transform="matrix(1.3433166,0,0,-1.3433166,-85.231891,578.68665)">
	<g id="g7531">
		<g id="g7517">
			<path id="path322" class="st3" d="M80.9,413.9L80.9,413.9v-1.7c0-0.5,0.4-0.9,0.9-0.9h1.7v2.6H80.9z"/>
			<path id="path332" class="st3" d="M85.1,411.3L85.1,411.3h1.7c0.5,0,0.9,0.4,0.9,0.9v1.7h-2.6V411.3z"/>
			<path id="path342" class="st3" d="M83.5,418.1L83.5,418.1h-1.4h-0.3h-0.9v-0.9v-0.6v-1h2.6V418.1z"/>
			<path id="path352" class="st3" d="M87.7,415.5L87.7,415.5v1.7l0,0v0.9h-0.9h-0.3h-1.4v-2.6H87.7z"/>
		</g>
		<g id="g7521">
			<path id="path362" class="st4" d="M92.8,396.7L92.8,396.7c-1-1.3-2.4-2.4-3.9-3.1l0,0l0,0l-4,5.4c-0.1,0.2-0.3,0.3-0.6,0.3
				c-0.2,0-0.4-0.1-0.6-0.3l-4-5.4l0,0c-1.5,0.7-2.8,1.8-3.9,3.1l0,0l0,0l8.5,11.4l4-5.4L92.8,396.7L92.8,396.7z M95.8,420.9
				L95.8,420.9h-4.6c-0.4,0-0.7-0.3-0.7-0.7c0-0.4,0.3-0.7,0.7-0.7h3.9v-16.1c0-0.6-0.1-1.3-0.2-1.9l0-0.1l-4.2,5.5
				c-0.1,0.2-0.3,0.3-0.6,0.3c-0.2,0-0.4-0.1-0.6-0.3l-1.3-1.7l-3.4,4.6c-0.1,0.2-0.3,0.3-0.6,0.3c-0.2,0-0.4-0.1-0.6-0.3l-3.4-4.6
				l-1.3,1.7c-0.1,0.2-0.3,0.3-0.6,0.3c-0.2,0-0.4-0.1-0.6-0.3l-4.2-5.5l0,0.1c-0.1,0.7-0.2,1.3-0.2,1.9v16.1h3.9
				c0.4,0,0.7,0.3,0.7,0.7c0,0.4-0.3,0.7-0.7,0.7h-4.6c-0.4,0-0.7-0.3-0.7-0.7v-16.8c0-2.3,0.7-4.6,1.9-6.6c0.3-0.4,0.6-0.9,0.9-1.2
				c1.2-1.5,2.8-2.7,4.6-3.4c0.1-0.1,0.2-0.1,0.3-0.1c0.2,0,0.4,0.1,0.6,0.3l3.8,5.1l0,0l3.7-4.9l0.1-0.1c0.1-0.1,0.2-0.2,0.4-0.2
				l0,0c0.1,0,0.1,0,0.2,0c0.1,0,0.2,0,0.3,0.1c1.8,0.7,3.4,1.9,4.7,3.4c0.3,0.4,0.6,0.8,0.9,1.2c1.3,2,1.9,4.2,1.9,6.6v0.8v16
				C96.4,420.6,96.1,420.9,95.8,420.9L95.8,420.9z"/>
			<path id="path372" class="st4" d="M87.9,420.9L87.9,420.9h-7.2l-0.2,0.9l0.1,0c0.4-0.1,0.8-0.2,1.2-0.2c1,0,1.8,0.3,2.4,1l0,0
				l0,0c0.6-0.6,1.5-1,2.4-1c0.4,0,0.8,0.1,1.2,0.2l0.1,0L87.9,420.9z M89.9,424.5L89.9,424.5c0,0.4-0.3,0.7-0.6,0.7
				c-0.4,0-0.7-0.2-0.7-0.6l-0.1-0.7c-0.2-0.5-0.9-0.9-1.7-0.9c-0.8,0-1.8,0.4-1.8,1.5c0,0.4-0.3,0.7-0.7,0.7
				c-0.4,0-0.7-0.3-0.7-0.7c0-1.1-1-1.5-1.8-1.5c-0.8,0-1.4,0.3-1.7,0.9v0l-0.1,0.7c-0.1,0.3-0.3,0.6-0.7,0.6c0,0,0,0-0.1,0
				c-0.4,0-0.6-0.3-0.6-0.7c0,0,0-0.1,0-0.1c0-0.2,0.1-0.7,0.2-0.8l0,0l0.6-3.4c0.1-0.3,0.4-0.6,0.7-0.6h8.4c0.3,0,0.6,0.2,0.7,0.6
				l0.6,3.4l0,0C89.8,423.6,89.9,424.2,89.9,424.5C89.9,424.4,89.9,424.4,89.9,424.5L89.9,424.5z"/>
		</g>
	</g>
</g>
</svg>
