<?xml version="1.0" encoding="utf-8"?>
<!-- Generator: Adobe Illustrator 16.0.3, SVG Export Plug-In . SVG Version: 6.00 Build 0)  -->
<!DOCTYPE svg PUBLIC "-//W3C//DTD SVG 1.1//EN" "http://www.w3.org/Graphics/SVG/1.1/DTD/svg11.dtd">
<svg version="1.1" id="Calque_1" xmlns="http://www.w3.org/2000/svg" xmlns:xlink="http://www.w3.org/1999/xlink" x="0px" y="0px"
	 width="294px" height="172.667px" viewBox="0 0 294 172.667" enable-background="new 0 0 294 172.667" xml:space="preserve">
<g>
	<g>
		<linearGradient id="SVGID_1_" gradientUnits="userSpaceOnUse" x1="18.3486" y1="89" x2="189.8486" y2="89">
			<stop  offset="0" style="stop-color:#2484C6;stop-opacity:0"/>
			<stop  offset="1" style="stop-color:#2484C6"/>
		</linearGradient>
		<polyline fill-rule="evenodd" clip-rule="evenodd" fill="url(#SVGID_1_)" points="18.349,12 189.849,88.809 18.349,166 		"/>
		<g>
			<path fill-rule="evenodd" clip-rule="evenodd" fill="#254295" d="M163.333,44.414c19.693,4.063,31.91,20.721,32.113,43.189
				c0.215,23.846-11.502,40.646-32.111,45.385c0-7.686,0.02-15.256-0.018-22.828c-0.008-1.564,0.713-1.932,2.139-1.941
				c1.623-0.01,1.914,0.824,1.908,2.17c-0.027,5.484-0.012,10.969-0.012,17.102c10.488-3.537,16.645-10.666,20.209-20.217
				c5.717-15.324,4.824-30.256-3.598-44.436c-3.115-5.244-7.637-9.061-13.221-11.705c-2.672-1.268-3.516-0.926-3.422,2.086
				c0.141,4.494,0.027,8.996,0.039,13.494c0.004,1.391,0.061,2.588-1.986,2.6c-2.014,0.014-2.055-1.102-2.051-2.543
				C163.343,59.447,163.333,52.125,163.333,44.414z"/>
			<path fill-rule="evenodd" clip-rule="evenodd" fill="#2A4597" d="M137.417,100.076c0.998-6.852-0.467-12.43-0.105-18.002
				c0.182-2.816-0.006-5.656,0.043-8.482c0.029-1.689-0.688-3.811,2.432-3.678c3.057,0.131,2.285,2.281,2.293,3.934
				c0.047,9.982,0.043,19.965-0.012,29.945c-0.008,1.334,0.736,3.188-1.541,3.588c-1.967,0.348-3.572-0.156-4.693-1.971
				c-4.785-7.736-9.609-15.449-14.406-23.176c-0.844-1.357-1.629-2.75-3.166-5.355c0,9.166,0,17,0,24.834
				c0,1.33-0.027,2.662,0.004,3.992c0.041,1.766-0.969,2.301-2.529,2.266c-1.422-0.031-2.135-0.75-2.135-2.162
				c-0.006-11.313-0.004-22.627-0.01-33.939c0-1.334,0.463-2.213,1.936-2.369c2.176-0.232,3.773,0.33,4.977,2.396
				c4.881,8.391,9.896,16.705,14.869,25.041C135.788,97.633,136.255,98.295,137.417,100.076z"/>
			<path fill-rule="evenodd" clip-rule="evenodd" fill="#274295" d="M88.751,89.877c-0.324,6.146-2.25,12.717-9.448,16.502
				c-6.316,3.324-12.592,3.158-18.131-1.271c-6.674-5.336-7.799-12.92-6.447-20.807c1.7-9.91,9.123-16.045,17.811-15.311
				C82.527,69.836,88.771,77.383,88.751,89.877z"/>
			<path fill-rule="evenodd" clip-rule="evenodd" fill="#264194" d="M216.233,88.131c0.002-5.166,0.121-10.336-0.049-15.496
				c-0.084-2.594,0.742-3.59,3.381-3.453c3.32,0.174,6.668-0.141,9.98,0.086c4.135,0.281,7.473,2.303,8.639,6.371
				c1.26,4.4,0.67,8.777-3.533,11.529c-2.035,1.332-2.484,1.656-0.463,3.646c4.018,3.957,3.445,9.828,5.184,14.766
				c0.313,0.885,0.068,1.648-1.098,1.633c-1.256-0.02-2.738,0.492-3.174-1.441c-0.582-2.576-1.172-5.152-1.873-7.697
				c-0.848-3.078-1.854-6.037-5.316-7.297c-5.441-1.979-7.545-0.605-7.555,5.082c-0.004,2.666,0.063,5.334-0.025,7.998
				c-0.049,1.475,0.76,3.537-2.146,3.412c-2.9-0.125-1.879-2.256-1.908-3.645C216.165,98.463,216.231,93.295,216.233,88.131z"/>
			<path fill-rule="evenodd" clip-rule="evenodd" fill="#274396" d="M257.583,106.781c3.928-11.836,7.918-23.66,11.73-35.541
				c0.734-2.293,2.271-2.02,3.893-2.016c1.461,0.006,2.576-0.107,3.24,2.012c3.734,11.908,7.779,23.719,11.713,35.551
				c-3.072,1.289-4.578,0.195-5.609-2.727c-3.371-9.547-3.449-9.426-13.641-9.129c-2.418,0.07-3.586,0.863-4.133,3.148
				c-0.498,2.082-1.467,4.055-1.912,6.145C262.21,107.289,260.499,107.889,257.583,106.781z"/>
			<path fill-rule="evenodd" clip-rule="evenodd" fill="#274396" d="M23.348,69.244c1.754-0.223,3.643,0.332,5.563,0.945
				c1.241,0.396,1.655,1.064,1.258,2.16c-0.377,1.037-0.64,2.1-2.428,1.395c-1.796-0.707-3.877-0.99-5.822-0.951
				c-2.988,0.061-5.7,1.225-6.46,4.422c-0.765,3.219,0.389,5.904,3.521,7.439c1.778,0.871,3.6,1.654,5.397,2.484
				c5.997,2.77,8.708,6.93,7.745,11.875c-1.166,5.986-5.357,9.072-12.287,9.295c-2.728,0.088-5.267-0.525-7.809-1.303
				c-1.563-0.477-2.054-1.545-1.489-3.076c0.65-1.766,1.893-0.957,2.849-0.506c2.183,1.025,4.497,1.232,6.813,1.154
				c3.369-0.113,6.233-1.232,7.184-4.92c0.979-3.799-0.645-6.457-3.926-8.217c-1.596-0.855-3.309-1.494-4.954-2.26
				c-6.229-2.898-8.63-6.707-7.51-11.873C12.135,72.039,16.36,69.215,23.348,69.244z"/>
			<path fill-rule="evenodd" clip-rule="evenodd" fill="#FFFFFF" d="M83.338,88.498c0.339,4.441-0.523,8.582-3.496,12.043
				c-5.074,5.906-13.729,5.355-17.666-1.361c-4.013-6.846-3.859-13.988-0.004-20.883c2.601-4.652,6.914-5.938,11.953-5.025
				c4.371,0.793,8.426,5.768,9.188,11.234C83.494,85.813,83.338,87.166,83.338,88.498z"/>
			<path fill-rule="evenodd" clip-rule="evenodd" fill="#FBFBFD" d="M224.948,72.27c5.992-0.037,9.336,2.494,9.385,7.104
				c0.051,4.832-3.463,7.492-9.438,7.92c-3.916,0.279-4.668-1.176-4.609-4.771C220.454,72.301,220.294,72.297,224.948,72.27z"/>
			<path fill-rule="evenodd" clip-rule="evenodd" fill="#F8F8FB" d="M272.634,72.98c2.074,6.24,3.633,11.088,5.313,15.893
				c0.699,2,0.078,2.535-1.934,2.764c-8.793,1.002-9.404,0.301-6.656-8.139C270.36,80.412,271.288,77.303,272.634,72.98z"/>
		</g>
		<defs>
			<filter id="Adobe_OpacityMaskFilter" filterUnits="userSpaceOnUse" x="18.349" y="12" width="171.5" height="154">
				
					<feColorMatrix  type="matrix" values="-1 0 0 0 1  0 -1 0 0 1  0 0 -1 0 1  0 0 0 1 0" color-interpolation-filters="sRGB" result="source"/>
			</filter>
		</defs>
		<mask maskUnits="userSpaceOnUse" x="18.349" y="12" width="171.5" height="154" id="SVGID_2_">
			<g filter="url(#Adobe_OpacityMaskFilter)">
				<g>
					<g>
						<path fill="#ED1C24" d="M71.284,88.24c2.582,0.209,4.156,1.287,4.725,3.233c-0.12-0.333-0.227-0.669-0.32-1.009
							c-0.309-1.045-0.592-2.098-0.844-3.155c0.309,1.295-0.242,1.582,0.135,0.25c0.275-0.772,0.236-0.708-0.118,0.194
							c0.214-0.468,1.29-1.723,0.059-0.316c-5.188,2.251-8.205,1.272-9.051-2.936c0.038,0.918,0.142,1.829,0.313,2.733
							c0.188,1.177,0.47,2.333,0.709,3.499c-0.286-1.396-0.02,0.724-0.036,1.098c0.163-1.002,0.15-1.079-0.038-0.234
							c0.283-1.133,1.633-2.324,2.66-2.59c1.33,4.822,2.658,9.643,3.988,14.465c1.781-0.564,3.615-1.32,4.807-2.841
							c1.008-1.287,1.508-2.218,2.096-3.741c0.131-0.342,0.564-1.924-0.17-0.303c1.688-3.723,1.103-8.039-2.691-10.262
							c-3.25-1.904-8.572-1.033-10.262,2.691c-0.654,1.445-0.954,2.881-1.508,4.316c0.643-1.103,1.285-2.205,1.929-3.309
							c0.604-0.34,1.208-0.678,1.812-1.018c-9.186,2.912-5.417,16.899,3.988,14.465c7.082-1.834,9.159-9.344,8.051-15.789
							c-0.098-0.626-0.215-1.248-0.352-1.867c-0.01-0.047-0.396-2.952-0.296-1.314c-0.134-2.193-0.554-3.93-1.608-5.859
							c-1.814-3.317-6.781-5.951-10.516-4.463c-5.65,2.25-9.117,8.103-8.78,14.189c0.339,6.124,3.661,15.62,11.319,14.871
							c4.067-0.398,7.5-3.11,7.5-7.5C78.784,91.953,75.36,87.842,71.284,88.24L71.284,88.24z"/>
					</g>
				</g>
				<g>
					<g>
						<path fill="#ED1C24" d="M83.472,85.678c0.201-3.234-2.927-9.088-5.738-10.721c-4.455-2.59-10.209-2.595-13.842,1.453
							c-2.146,2.392,1.377,5.939,3.535,3.535c2.012-2.241,5.547-2.484,7.906-0.545c1.184,0.973,3.234,4.744,3.139,6.277
							C78.271,88.899,83.272,88.88,83.472,85.678L83.472,85.678z"/>
					</g>
				</g>
				<g>
					<g>
						<path fill="#ED1C24" d="M62.876,77.229c-1.828,2.475-2.652,5.396-3.377,8.348c-0.796,3.232,0.005,6.404,0.688,9.578
							c0.677,3.152,5.496,1.815,4.82-1.328c-0.572-2.668-1.139-5.087-0.473-7.792c0.56-2.276,1.253-4.38,2.658-6.282
							C69.112,77.154,64.769,74.666,62.876,77.229L62.876,77.229z"/>
					</g>
				</g>
				<g>
					<g>
						<path fill="#ED1C24" d="M64.239,91.723c0.501,0.566,0.234,0.139,0.252-0.421c0.014-0.456,0.066-0.911,0.098-1.365
							c0.094-1.386,0.008-2.807,0.008-4.196c0-3.225-5-3.225-5,0c0,1.73,0.051,3.463-0.084,5.189
							c-0.123,1.604,0.102,3.094,1.191,4.328C62.843,97.679,66.366,94.129,64.239,91.723L64.239,91.723z"/>
					</g>
				</g>
				<g>
					<g>
						<path fill="#ED1C24" d="M61.249,92.201c-1.271,3.035,0.498,7.422,2.729,9.713c2.567,2.638,6.412,4.162,10.046,3.127
							c3.06-0.871,6.128-4.072,7.628-6.754c1.907-3.408,2.092-7.739,2.07-11.547c-0.019-3.223-5.019-3.225-5,0
							c0.023,4-0.119,8.534-3.268,11.42c-2.072,1.898-3.791,2.776-6.471,1.422c-1.666-0.843-3.705-4.16-2.914-6.053
							C67.314,90.557,62.474,89.272,61.249,92.201L61.249,92.201z"/>
					</g>
				</g>
			</g>
		</mask>
		<linearGradient id="SVGID_3_" gradientUnits="userSpaceOnUse" x1="18.3486" y1="89" x2="189.8486" y2="89">
			<stop  offset="0" style="stop-color:#2484C6;stop-opacity:0"/>
			<stop  offset="1" style="stop-color:#2484C6"/>
		</linearGradient>
		<polyline mask="url(#SVGID_2_)" fill-rule="evenodd" clip-rule="evenodd" fill="url(#SVGID_3_)" points="18.349,12 
			189.849,88.809 18.349,166 		"/>
	</g>
	<line fill="none" stroke="#662D91" stroke-width="4" stroke-miterlimit="10" x1="264.833" y1="93" x2="280.708" y2="93"/>
</g>
</svg>
