<?xml version="1.0" encoding="utf-8"?>
<!-- Generator: Adobe Illustrator 16.0.3, SVG Export Plug-In . SVG Version: 6.00 Build 0)  -->
<!DOCTYPE svg PUBLIC "-//W3C//DTD SVG 1.1//EN" "http://www.w3.org/Graphics/SVG/1.1/DTD/svg11.dtd">
<svg version="1.1" id="Calque_1" xmlns="http://www.w3.org/2000/svg" xmlns:xlink="http://www.w3.org/1999/xlink" x="0px" y="0px"
	 width="792px" height="293px" viewBox="0 0 792 293" enable-background="new 0 0 792 293" xml:space="preserve">
<g>
	<polygon fill="none" stroke="#2E3192" stroke-width="0.5" stroke-miterlimit="10" points="155.79,88.127 399.848,88.127 
		264.115,229.959 20.057,229.959 	"/>
	
		<line fill="none" stroke="#2E3192" stroke-width="0.5" stroke-miterlimit="10" x1="32.384" y1="217.078" x2="276.442" y2="217.078"/>
	
		<line fill="none" stroke="#2E3192" stroke-width="0.5" stroke-miterlimit="10" x1="44.745" y1="204.162" x2="288.802" y2="204.162"/>
	
		<line fill="none" stroke="#2E3192" stroke-width="0.5" stroke-miterlimit="10" x1="57.072" y1="191.281" x2="301.129" y2="191.281"/>
	<line fill="none" stroke="#2E3192" stroke-width="0.5" stroke-miterlimit="10" x1="69.399" y1="178.4" x2="313.457" y2="178.4"/>
	
		<line fill="none" stroke="#2E3192" stroke-width="0.5" stroke-miterlimit="10" x1="81.76" y1="165.484" x2="325.817" y2="165.484"/>
	
		<line fill="none" stroke="#2E3192" stroke-width="0.5" stroke-miterlimit="10" x1="94.087" y1="152.604" x2="338.145" y2="152.604"/>
	
		<line fill="none" stroke="#2E3192" stroke-width="0.5" stroke-miterlimit="10" x1="106.447" y1="139.688" x2="350.505" y2="139.688"/>
	
		<line fill="none" stroke="#2E3192" stroke-width="0.5" stroke-miterlimit="10" x1="118.775" y1="126.806" x2="362.833" y2="126.806"/>
	
		<line fill="none" stroke="#2E3192" stroke-width="0.5" stroke-miterlimit="10" x1="131.102" y1="113.924" x2="375.16" y2="113.924"/>
	
		<line fill="none" stroke="#2E3192" stroke-width="0.5" stroke-miterlimit="10" x1="143.462" y1="101.009" x2="387.52" y2="101.009"/>
	
		<line fill="none" stroke="#2E3192" stroke-width="0.5" stroke-miterlimit="10" x1="388.229" y1="88.127" x2="252.496" y2="229.959"/>
	
		<line fill="none" stroke="#2E3192" stroke-width="0.5" stroke-miterlimit="10" x1="376.609" y1="88.127" x2="240.876" y2="229.959"/>
	
		<line fill="none" stroke="#2E3192" stroke-width="0.5" stroke-miterlimit="10" x1="364.991" y1="88.127" x2="229.258" y2="229.959"/>
	
		<line fill="none" stroke="#2E3192" stroke-width="0.5" stroke-miterlimit="10" x1="353.371" y1="88.127" x2="217.639" y2="229.959"/>
	
		<line fill="none" stroke="#2E3192" stroke-width="0.5" stroke-miterlimit="10" x1="341.752" y1="88.127" x2="206.02" y2="229.959"/>
	
		<line fill="none" stroke="#2E3192" stroke-width="0.5" stroke-miterlimit="10" x1="330.133" y1="88.127" x2="194.401" y2="229.959"/>
	
		<line fill="none" stroke="#2E3192" stroke-width="0.5" stroke-miterlimit="10" x1="318.515" y1="88.127" x2="182.782" y2="229.959"/>
	
		<line fill="none" stroke="#2E3192" stroke-width="0.5" stroke-miterlimit="10" x1="306.896" y1="88.127" x2="171.163" y2="229.959"/>
	
		<line fill="none" stroke="#2E3192" stroke-width="0.5" stroke-miterlimit="10" x1="295.277" y1="88.127" x2="159.544" y2="229.959"/>
	
		<line fill="none" stroke="#2E3192" stroke-width="0.5" stroke-miterlimit="10" x1="283.658" y1="88.127" x2="147.925" y2="229.959"/>
	
		<line fill="none" stroke="#2E3192" stroke-width="0.5" stroke-miterlimit="10" x1="271.979" y1="88.127" x2="136.247" y2="229.959"/>
	
		<line fill="none" stroke="#2E3192" stroke-width="0.5" stroke-miterlimit="10" x1="260.36" y1="88.127" x2="124.628" y2="229.959"/>
	
		<line fill="none" stroke="#2E3192" stroke-width="0.5" stroke-miterlimit="10" x1="248.741" y1="88.127" x2="113.009" y2="229.959"/>
	
		<line fill="none" stroke="#2E3192" stroke-width="0.5" stroke-miterlimit="10" x1="237.122" y1="88.127" x2="101.39" y2="229.959"/>
	
		<line fill="none" stroke="#2E3192" stroke-width="0.5" stroke-miterlimit="10" x1="225.503" y1="88.127" x2="89.771" y2="229.959"/>
	
		<line fill="none" stroke="#2E3192" stroke-width="0.5" stroke-miterlimit="10" x1="213.884" y1="88.127" x2="78.152" y2="229.959"/>
	
		<line fill="none" stroke="#2E3192" stroke-width="0.5" stroke-miterlimit="10" x1="202.266" y1="88.127" x2="66.533" y2="229.959"/>
	
		<line fill="none" stroke="#2E3192" stroke-width="0.5" stroke-miterlimit="10" x1="190.646" y1="88.127" x2="54.914" y2="229.959"/>
	
		<line fill="none" stroke="#2E3192" stroke-width="0.5" stroke-miterlimit="10" x1="179.028" y1="88.127" x2="43.295" y2="229.959"/>
	
		<line fill="none" stroke="#2E3192" stroke-width="0.5" stroke-miterlimit="10" x1="167.409" y1="88.127" x2="31.676" y2="229.959"/>
</g>
<g>
	<polygon fill="none" stroke="#ED1C24" stroke-width="0.5" stroke-miterlimit="10" points="577.06,84.276 784.536,105.792 
		548.577,248.163 341.102,226.646 	"/>
	
		<line fill="none" stroke="#ED1C24" stroke-width="0.5" stroke-miterlimit="10" x1="362.532" y1="213.716" x2="570.005" y2="235.233"/>
	
		<line fill="none" stroke="#ED1C24" stroke-width="0.5" stroke-miterlimit="10" x1="384.019" y1="200.751" x2="591.493" y2="222.269"/>
	
		<line fill="none" stroke="#ED1C24" stroke-width="0.5" stroke-miterlimit="10" x1="405.449" y1="187.821" x2="612.923" y2="209.337"/>
	
		<line fill="none" stroke="#ED1C24" stroke-width="0.5" stroke-miterlimit="10" x1="426.879" y1="174.892" x2="634.354" y2="196.407"/>
	
		<line fill="none" stroke="#ED1C24" stroke-width="0.5" stroke-miterlimit="10" x1="448.366" y1="161.927" x2="655.842" y2="183.442"/>
	
		<line fill="none" stroke="#ED1C24" stroke-width="0.5" stroke-miterlimit="10" x1="469.796" y1="148.995" x2="677.272" y2="170.513"/>
	
		<line fill="none" stroke="#ED1C24" stroke-width="0.5" stroke-miterlimit="10" x1="491.284" y1="136.03" x2="698.759" y2="157.548"/>
	
		<line fill="none" stroke="#ED1C24" stroke-width="0.5" stroke-miterlimit="10" x1="512.715" y1="123.1" x2="720.188" y2="144.618"/>
	
		<line fill="none" stroke="#ED1C24" stroke-width="0.5" stroke-miterlimit="10" x1="534.144" y1="110.17" x2="741.617" y2="131.688"/>
	
		<line fill="none" stroke="#ED1C24" stroke-width="0.5" stroke-miterlimit="10" x1="555.632" y1="97.206" x2="763.107" y2="118.721"/>
	
		<line fill="none" stroke="#ED1C24" stroke-width="0.5" stroke-miterlimit="10" x1="774.659" y1="104.768" x2="538.698" y2="247.14"/>
	
		<line fill="none" stroke="#ED1C24" stroke-width="0.5" stroke-miterlimit="10" x1="764.78" y1="103.743" x2="528.821" y2="246.114"/>
	
		<line fill="none" stroke="#ED1C24" stroke-width="0.5" stroke-miterlimit="10" x1="754.903" y1="102.719" x2="518.942" y2="245.091"/>
	
		<line fill="none" stroke="#ED1C24" stroke-width="0.5" stroke-miterlimit="10" x1="745.026" y1="101.694" x2="509.067" y2="244.065"/>
	
		<line fill="none" stroke="#ED1C24" stroke-width="0.5" stroke-miterlimit="10" x1="735.149" y1="100.67" x2="499.188" y2="243.042"/>
	
		<line fill="none" stroke="#ED1C24" stroke-width="0.5" stroke-miterlimit="10" x1="725.272" y1="99.647" x2="489.312" y2="242.017"/>
	
		<line fill="none" stroke="#ED1C24" stroke-width="0.5" stroke-miterlimit="10" x1="715.396" y1="98.622" x2="479.435" y2="240.993"/>
	
		<line fill="none" stroke="#ED1C24" stroke-width="0.5" stroke-miterlimit="10" x1="705.517" y1="97.598" x2="469.558" y2="239.968"/>
	
		<line fill="none" stroke="#ED1C24" stroke-width="0.5" stroke-miterlimit="10" x1="695.642" y1="96.573" x2="459.681" y2="238.944"/>
	
		<line fill="none" stroke="#ED1C24" stroke-width="0.5" stroke-miterlimit="10" x1="685.763" y1="95.549" x2="449.802" y2="237.919"/>
	<line fill="none" stroke="#ED1C24" stroke-width="0.5" stroke-miterlimit="10" x1="675.835" y1="94.52" x2="439.874" y2="236.89"/>
	
		<line fill="none" stroke="#ED1C24" stroke-width="0.5" stroke-miterlimit="10" x1="665.958" y1="93.495" x2="429.998" y2="235.866"/>
	
		<line fill="none" stroke="#ED1C24" stroke-width="0.5" stroke-miterlimit="10" x1="656.079" y1="92.471" x2="420.119" y2="234.841"/>
	
		<line fill="none" stroke="#ED1C24" stroke-width="0.5" stroke-miterlimit="10" x1="646.204" y1="91.446" x2="410.242" y2="233.817"/>
	
		<line fill="none" stroke="#ED1C24" stroke-width="0.5" stroke-miterlimit="10" x1="636.325" y1="90.422" x2="400.365" y2="232.792"/>
	
		<line fill="none" stroke="#ED1C24" stroke-width="0.5" stroke-miterlimit="10" x1="626.449" y1="89.397" x2="390.488" y2="231.769"/>
	
		<line fill="none" stroke="#ED1C24" stroke-width="0.5" stroke-miterlimit="10" x1="616.569" y1="88.374" x2="380.611" y2="230.743"/>
	
		<line fill="none" stroke="#ED1C24" stroke-width="0.5" stroke-miterlimit="10" x1="606.692" y1="87.348" x2="370.734" y2="229.72"/>
	
		<line fill="none" stroke="#ED1C24" stroke-width="0.5" stroke-miterlimit="10" x1="596.815" y1="86.325" x2="360.857" y2="228.694"/>
	
		<line fill="none" stroke="#ED1C24" stroke-width="0.5" stroke-miterlimit="10" x1="586.939" y1="85.299" x2="350.979" y2="227.671"/>
</g>
<text transform="matrix(1 0 0 1 106.4473 283.001)" fill="#2E3192" font-family="'LMRoman10-Regular'" font-size="12">Acquisition time 1</text>
<text transform="matrix(1 0 0 1 414.0684 283.001)" fill="#ED1C24" font-family="'LMRoman10-Regular'" font-size="12">Acquisition time 2</text>
<g>
	<g>
		<path fill="none" stroke="#000000" stroke-width="0.5" stroke-miterlimit="10" d="M573.534,91.446
			c-20.894-13.251-228.243-138.66-411.08-0.501"/>
		<g>
			<path d="M164.252,89.603l4.921,1.889l-0.059,0.175l-7.595,2.182c-2.369,1.119-4.737,2.238-7.106,3.357
				c1.681-2.01,3.361-4.02,5.041-6.03l4.028-6.798l0.169-0.033L164.252,89.603z"/>
		</g>
	</g>
</g>
<g>
	<g>
		<path fill="none" stroke="#000000" stroke-width="0.5" stroke-miterlimit="10" d="M570.418,194.209
			c-20.893-13.25-228.243-138.659-411.08-0.5"/>
		<g>
			<path d="M161.137,192.367l4.921,1.889l-0.059,0.175l-7.595,2.182c-2.369,1.119-4.737,2.238-7.106,3.356
				c1.681-2.01,3.361-4.02,5.041-6.029l4.028-6.798l0.169-0.033L161.137,192.367z"/>
		</g>
	</g>
</g>
</svg>
