<?xml version="1.0" encoding="utf-8"?>
<!-- Generator: Adobe Illustrator 16.0.3, SVG Export Plug-In . SVG Version: 6.00 Build 0)  -->
<!DOCTYPE svg PUBLIC "-//W3C//DTD SVG 1.1//EN" "http://www.w3.org/Graphics/SVG/1.1/DTD/svg11.dtd">
<svg version="1.1" id="Calque_1" xmlns="http://www.w3.org/2000/svg" xmlns:xlink="http://www.w3.org/1999/xlink" x="0px" y="0px"
	 width="198px" height="211.334px" viewBox="0 0 198 211.334" enable-background="new 0 0 198 211.334" xml:space="preserve">
<rect x="6.2" y="4.333" fill="#FFFFFF" stroke="#000000" stroke-miterlimit="10" width="187.2" height="201.6"/>
<g>
	<rect x="6.2" y="4.333" fill="#262262" stroke="#000000" stroke-miterlimit="10" width="187.2" height="201.6"/>
	<line fill="#262262" stroke="#000000" stroke-miterlimit="10" x1="6.2" y1="187.623" x2="193.4" y2="187.623"/>
	<line fill="#262262" stroke="#000000" stroke-miterlimit="10" x1="6.2" y1="169.265" x2="193.4" y2="169.265"/>
	<line fill="#262262" stroke="#000000" stroke-miterlimit="10" x1="6.2" y1="150.956" x2="193.4" y2="150.956"/>
	<line fill="#262262" stroke="#000000" stroke-miterlimit="10" x1="6.2" y1="132.646" x2="193.4" y2="132.646"/>
	<line fill="#262262" stroke="#000000" stroke-miterlimit="10" x1="6.2" y1="114.288" x2="193.4" y2="114.288"/>
	<line fill="#262262" stroke="#000000" stroke-miterlimit="10" x1="6.2" y1="95.978" x2="193.4" y2="95.978"/>
	<line fill="#262262" stroke="#000000" stroke-miterlimit="10" x1="6.2" y1="77.62" x2="193.4" y2="77.62"/>
	<line fill="#262262" stroke="#000000" stroke-miterlimit="10" x1="6.2" y1="59.31" x2="193.4" y2="59.31"/>
	<line fill="#262262" stroke="#000000" stroke-miterlimit="10" x1="6.2" y1="41.001" x2="193.4" y2="41.001"/>
	<line fill="#262262" stroke="#000000" stroke-miterlimit="10" x1="6.2" y1="22.643" x2="193.4" y2="22.643"/>
	<line fill="#262262" stroke="#000000" stroke-miterlimit="10" x1="176.398" y1="4.333" x2="176.398" y2="205.933"/>
	<line fill="#262262" stroke="#000000" stroke-miterlimit="10" x1="159.351" y1="4.333" x2="159.351" y2="205.933"/>
	<line fill="#262262" stroke="#000000" stroke-miterlimit="10" x1="142.35" y1="4.333" x2="142.35" y2="205.933"/>
	<line fill="#262262" stroke="#000000" stroke-miterlimit="10" x1="125.348" y1="4.333" x2="125.348" y2="205.933"/>
	<line fill="#262262" stroke="#000000" stroke-miterlimit="10" x1="108.301" y1="4.333" x2="108.301" y2="205.933"/>
	<line fill="#262262" stroke="#000000" stroke-miterlimit="10" x1="91.299" y1="4.333" x2="91.299" y2="205.933"/>
	<line fill="#262262" stroke="#000000" stroke-miterlimit="10" x1="74.252" y1="4.333" x2="74.252" y2="205.933"/>
	<line fill="#262262" stroke="#000000" stroke-miterlimit="10" x1="57.25" y1="4.333" x2="57.25" y2="205.933"/>
	<line fill="#262262" stroke="#000000" stroke-miterlimit="10" x1="40.249" y1="4.333" x2="40.249" y2="205.933"/>
	<line fill="#262262" stroke="#000000" stroke-miterlimit="10" x1="23.202" y1="4.333" x2="23.202" y2="205.933"/>
</g>
<rect x="57.25" y="77.62" fill="#FFF200" width="34.049" height="36.668"/>
<rect x="91.299" y="95.978" fill="#FFDE17" width="17.001" height="18.31"/>
<rect x="57.25" y="114.288" fill="#ED1C24" width="68.098" height="18.358"/>
<rect x="23.202" y="114.288" fill="#D7DF23" width="34.049" height="18.358"/>
<rect x="40.226" y="95.954" fill="#ED1C24" width="17.024" height="18.334"/>
<rect x="40.249" y="132.646" fill="#FFF200" width="68.052" height="18.31"/>
<rect x="57.25" y="150.956" fill="#00A651" width="34.049" height="18.309"/>
</svg>
