<?xml version="1.0" encoding="utf-8"?>
<!-- Generator: Adobe Illustrator 16.0.3, SVG Export Plug-In . SVG Version: 6.00 Build 0)  -->
<!DOCTYPE svg PUBLIC "-//W3C//DTD SVG 1.1//EN" "http://www.w3.org/Graphics/SVG/1.1/DTD/svg11.dtd">
<svg version="1.1" id="Calque_1" xmlns="http://www.w3.org/2000/svg" xmlns:xlink="http://www.w3.org/1999/xlink" x="0px" y="0px"
	 width="85.333px" height="46.334px" viewBox="0 0 85.333 46.334" enable-background="new 0 0 85.333 46.334" xml:space="preserve">
<g>
	<path fill="#7B2E3E" d="M48.742,21.996c-0.566-1.183-2.043-1.652-3.305-1.047c-1.262,0.602-2.176,2.215-1.613,3.395
		s2.387,1.484,3.648,0.879C48.734,24.621,49.301,23.176,48.742,21.996"/>
	<path fill="#7B2E3E" d="M54.238,19.379c-1.484-3.102-4.578-4.922-7.801-4.922c-1.246,0-2.52,0.273-3.714,0.844
		c-1.192,0.57-2.203,1.383-2.985,2.351l3,2.434c0.43-0.535,0.981-0.977,1.649-1.297c0.668-0.316,1.363-0.465,2.047-0.465
		c1.789,0,3.5,1,4.316,2.719c0.316,0.668,0.465,1.359,0.465,2.051c0,1.785-1,3.492-2.719,4.313
		c-0.656,0.313-1.332,0.457-2.008,0.465v3.863c1.234-0.004,2.492-0.277,3.672-0.844c3.102-1.48,4.922-4.574,4.918-7.797
		C55.078,21.848,54.805,20.574,54.238,19.379"/>
	<path fill="#706A7F" d="M38.637,13.355c-0.563-1.179-2.387-1.484-3.649-0.882c-1.261,0.605-1.828,2.05-1.265,3.23
		c0.562,1.18,2.039,1.649,3.3,1.047C38.285,16.145,39.199,14.535,38.637,13.355"/>
	<path fill="#706A7F" d="M39.742,17.648c-0.433,0.536-0.984,0.981-1.652,1.297c-0.668,0.321-1.363,0.469-2.051,0.469
		c-1.785-0.004-3.492-1.004-4.312-2.719c-0.317-0.672-0.465-1.363-0.465-2.05c0-1.786,1-3.497,2.718-4.313
		c0.657-0.312,1.336-0.461,2.016-0.469L35.992,6C34.758,6.004,33.5,6.281,32.32,6.844c-3.105,1.48-4.925,4.578-4.922,7.801
		c0,1.246,0.274,2.515,0.844,3.71c1.481,3.102,4.571,4.922,7.793,4.922h0.004c1.25,0,2.52-0.273,3.715-0.843
		c1.191-0.571,2.203-1.383,2.988-2.352L39.742,17.648z M39.742,17.648"/>
	<path fill="#151515" d="M14.59,37.449c-1.113,0-1.973,1.023-1.973,2.215c0,1.195,0.86,2.215,1.973,2.215
		c0.957,0,1.453-0.395,1.855-0.984L16.23,40.75c-0.339,0.457-0.746,0.824-1.343,0.824c-0.774,0-1.301-0.699-1.301-1.938h2.902
		C16.488,38.188,15.637,37.449,14.59,37.449 M13.586,39.332c0-0.645,0.125-1.574,0.984-1.574c0.879,0,1.004,0.93,1.004,1.574H13.586
		z M13.586,39.332"/>
	<path fill="#151515" d="M20.414,37.449c-0.617,0-1.047,0.34-1.371,0.898h-0.02v-0.844l-1.406,0.055v0.305
		c0.477,0,0.637,0.09,0.637,0.375L18.25,41.77h0.848v-2.445c0-0.68,0.429-1.516,1.093-1.516c0.332,0,0.715,0.188,0.715,0.969v2.992
		h0.844v-2.68C21.75,37.781,21.051,37.449,20.414,37.449"/>
	<path fill="#151515" d="M25.871,40.605c0,0.719-0.305,0.969-0.652,0.969c-0.262,0-0.492-0.09-0.492-0.469v-3.242h1.246v-0.305
		h-1.246V36.16h-0.325c-0.234,1.094-0.339,1.328-1.175,1.398v0.305h0.656v2.922c0,0.887,0.484,1.094,1.113,1.094
		c0.887,0,1.129-0.5,1.129-1.309v-0.152h-0.254V40.605z M25.871,40.605"/>
	<path fill="#151515" d="M29.746,37.449c-0.746,0-1.043,0.559-1.23,1.273H28.5v-1.219l-1.426,0.055v0.305
		c0.485,0,0.645,0.09,0.645,0.375v3.531h0.84c0,0,0.004-0.465,0.004-1.207c0-1.707,0.445-2.805,1.046-2.805l0.118,0.016
		c-0.125,0.082-0.188,0.207-0.188,0.348c0,0.25,0.152,0.422,0.438,0.422c0.277,0,0.476-0.23,0.476-0.473
		C30.453,37.801,30.238,37.449,29.746,37.449"/>
	<path fill="#151515" d="M35.121,41.359c-0.168,0-0.277-0.055-0.277-0.504v-2.168c0-0.949-0.571-1.238-1.739-1.238
		c-0.816,0-1.523,0.461-1.523,1.004c0,0.27,0.215,0.523,0.52,0.523c0.304,0,0.519-0.254,0.519-0.523c0-0.25-0.144-0.43-0.387-0.473
		c0.27-0.172,0.532-0.223,0.844-0.223c0.34,0,0.926,0.105,0.926,0.555v0.832c-0.766,0.262-2.656,0.676-2.656,1.703
		c0,0.699,0.629,1.031,1.265,1.031c0.664,0,1.192-0.195,1.442-0.859h0.019c0.071,0.465,0.199,0.805,0.727,0.805
		c0.637,0,0.922-0.512,0.922-1.094h-0.25C35.473,40.945,35.41,41.359,35.121,41.359 M34.004,40.211c0,0.762-0.496,1.293-1.059,1.293
		c-0.422,0-0.629-0.289-0.629-0.691c0-0.781,1.059-1.227,1.688-1.383V40.211z M34.004,40.211"/>
	<path fill="#151515" d="M41.551,37.449c-1.11,0-1.969,1.023-1.969,2.215c0,1.195,0.859,2.215,1.969,2.215
		c0.961,0,1.453-0.395,1.855-0.984l-0.215-0.145c-0.339,0.457-0.742,0.824-1.343,0.824c-0.77,0-1.301-0.699-1.301-1.938h2.906
		C43.453,38.188,42.602,37.449,41.551,37.449 M40.547,39.332c0-0.645,0.129-1.574,0.988-1.574c0.879,0,1.004,0.93,1.004,1.574
		H40.547z M40.547,39.332"/>
	<path fill="#151515" d="M53.188,37.559v0.305c0.539,0,0.699,0.09,0.699,0.375v2.008c-0.078,0.594-0.402,1.273-1.137,1.273
		c-0.477,0-0.672-0.355-0.672-0.859v-3.102h-1.48v0.305c0.477,0,0.637,0.09,0.637,0.375v2.027c0,1.059,0.527,1.613,1.336,1.613
		c0.617,0,1.047-0.34,1.371-0.895h0.02v0.785h0.77v-4.211H53.188z M53.188,37.559"/>
	<path fill="#151515" d="M45.738,36.891c0-0.715,0.512-1.086,1.195-1.086c1.039,0,1.547,0.996,1.781,1.883h0.25v-2.078H48.66
		c-0.027,0.09-0.141,0.41-0.277,0.41c-0.215,0-0.645-0.52-1.461-0.52c-0.957,0-1.918,0.629-1.918,1.703
		c0,2.387,3.586,1.195,3.586,3.211c0,0.727-0.656,1.172-1.445,1.172c-1.227,0-1.781-0.699-1.98-1.652h-0.27
		c0.195,1.16,0.902,1.949,2.293,1.949c1.184-0.004,2.137-0.758,2.137-2C49.324,37.68,45.738,38.602,45.738,36.891"/>
	<path fill="#151515" d="M58.906,37.449c-0.715,0-1.039,0.434-1.262,0.934h-0.02v-0.824l-1.453,0.055v0.305
		c0.52,0,0.684,0.09,0.684,0.375v5.328h0.844l-0.004-2.469h0.02c0.27,0.512,0.563,0.727,1.199,0.727
		c1.078,0,1.883-1.074,1.883-2.262C60.797,38.5,59.957,37.449,58.906,37.449 M58.719,41.574c-0.297,0-1.023-0.277-1.023-1.641
		v-0.242c0-1.129,0.414-1.934,1.094-1.934c0.773,0,1.098,0.805,1.098,1.934C59.887,41.02,59.563,41.574,58.719,41.574"/>
	<path fill="#151515" d="M65.305,36.07c0.164-0.098,0.27-0.242,0.27-0.367c0-0.172-0.09-0.297-0.305-0.297
		c-0.168,0-0.277,0.09-0.387,0.207l-1.316,1.336h0.359L65.305,36.07z M65.305,36.07"/>
	<path fill="#151515" d="M64.168,37.449c-1.113,0-1.973,1.023-1.973,2.215c0,1.195,0.859,2.215,1.973,2.215
		c0.957,0,1.453-0.395,1.855-0.984l-0.215-0.145c-0.34,0.457-0.742,0.824-1.348,0.824c-0.766,0-1.297-0.699-1.297-1.938h2.902
		C66.066,38.188,65.219,37.449,64.168,37.449 M63.164,39.332c0-0.645,0.125-1.574,0.984-1.574c0.879,0,1.004,0.93,1.004,1.574
		H63.164z M63.164,39.332"/>
	<path fill="#151515" d="M67.234,36.285c0.52,0,0.68,0.09,0.68,0.375L67.91,41.77h0.848v-5.844l-1.523,0.055V36.285z M67.234,36.285
		"/>
	<path fill="#151515" d="M79.215,40.746c-0.316,0.465-0.719,0.824-1.363,0.824c-0.961,0-1.371-0.887-1.371-2.008
		c0-1.137,0.547-1.809,1.289-1.809c0.992,0,0.5,1.086,1.129,1.086c0.258,0,0.484-0.188,0.484-0.449c0-0.598-0.844-0.945-1.531-0.945
		c-1.203,0-2.34,0.934-2.34,2.215s0.941,2.215,2.168,2.215c0.836,0,1.391-0.395,1.758-1.023L79.215,40.746z M79.215,40.746"/>
	<path fill="#151515" d="M36.465,36.285c0.519,0,0.68,0.09,0.68,0.375l0.003,5.109h0.836l0.004-5.844l-1.523,0.055V36.285z
		 M36.465,36.285"/>
	<path fill="#151515" d="M72.277,37.449c-1.109,0-1.973,1.023-1.973,2.215c0,1.195,0.863,2.215,1.973,2.215
		c0.961,0,1.453-0.395,1.855-0.984l-0.215-0.145c-0.34,0.457-0.742,0.824-1.344,0.824c-0.77,0-1.301-0.699-1.301-1.938h2.906
		C74.18,38.188,73.328,37.449,72.277,37.449 M71.273,39.332c0-0.645,0.129-1.574,0.988-1.574c0.875,0,1.004,0.93,1.004,1.574H71.273
		z M71.273,39.332"/>
	<path fill="#151515" d="M8.898,41.574c-0.781,0-1.855-0.734-1.855-2.887c0-1.945,0.59-2.887,1.883-2.887
		c1.144,0,1.566,0.977,1.844,1.973h0.246v-2.117h-0.219C10.746,35.82,10.594,36,10.43,36c-0.153,0-0.797-0.504-1.594-0.504
		C7.203,35.496,6,37.027,6,38.688s1.203,3.191,2.738,3.191c1.489,0,2.207-0.758,2.41-1.949h-0.269
		C10.676,40.879,10.121,41.574,8.898,41.574"/>
</g>
</svg>
