<?xml version="1.0" encoding="utf-8"?>
<!-- Generator: Adobe Illustrator 16.0.3, SVG Export Plug-In . SVG Version: 6.00 Build 0)  -->
<!DOCTYPE svg PUBLIC "-//W3C//DTD SVG 1.1//EN" "http://www.w3.org/Graphics/SVG/1.1/DTD/svg11.dtd">
<svg version="1.1" id="Calque_1" xmlns="http://www.w3.org/2000/svg" xmlns:xlink="http://www.w3.org/1999/xlink" x="0px" y="0px"
	 width="764.8px" height="225.601px" viewBox="0 0 764.8 225.601" enable-background="new 0 0 764.8 225.601" xml:space="preserve">
<g>
	<rect x="345.7" y="14.289" fill="#FFFFFF" stroke="#000000" stroke-miterlimit="10" width="17.399" height="144.8"/>
	<line fill="#FFFFFF" stroke="#000000" stroke-miterlimit="10" x1="345.7" y1="145.938" x2="363.099" y2="145.938"/>
	<line fill="#FFFFFF" stroke="#000000" stroke-miterlimit="10" x1="345.7" y1="132.751" x2="363.099" y2="132.751"/>
	<line fill="#FFFFFF" stroke="#000000" stroke-miterlimit="10" x1="345.7" y1="119.601" x2="363.099" y2="119.601"/>
	<line fill="#FFFFFF" stroke="#000000" stroke-miterlimit="10" x1="345.7" y1="106.45" x2="363.099" y2="106.45"/>
	<line fill="#FFFFFF" stroke="#000000" stroke-miterlimit="10" x1="345.7" y1="93.264" x2="363.099" y2="93.264"/>
	<line fill="#FFFFFF" stroke="#000000" stroke-miterlimit="10" x1="345.7" y1="80.113" x2="363.099" y2="80.113"/>
	<line fill="#FFFFFF" stroke="#000000" stroke-miterlimit="10" x1="345.7" y1="66.927" x2="363.099" y2="66.927"/>
	<line fill="#FFFFFF" stroke="#000000" stroke-miterlimit="10" x1="345.7" y1="53.776" x2="363.099" y2="53.776"/>
	<line fill="#FFFFFF" stroke="#000000" stroke-miterlimit="10" x1="345.7" y1="40.625" x2="363.099" y2="40.625"/>
	<line fill="#FFFFFF" stroke="#000000" stroke-miterlimit="10" x1="345.7" y1="27.439" x2="363.099" y2="27.439"/>
</g>
<g>
	<rect x="337" y="26.401" fill="#FFFFFF" stroke="#000000" stroke-miterlimit="10" width="17.4" height="144.8"/>
	<line fill="#FFFFFF" stroke="#000000" stroke-miterlimit="10" x1="337" y1="158.05" x2="354.4" y2="158.05"/>
	<line fill="#FFFFFF" stroke="#000000" stroke-miterlimit="10" x1="337" y1="144.864" x2="354.4" y2="144.864"/>
	<line fill="#FFFFFF" stroke="#000000" stroke-miterlimit="10" x1="337" y1="131.713" x2="354.4" y2="131.713"/>
	<line fill="#FFFFFF" stroke="#000000" stroke-miterlimit="10" x1="337" y1="118.563" x2="354.4" y2="118.563"/>
	<line fill="#FFFFFF" stroke="#000000" stroke-miterlimit="10" x1="337" y1="105.376" x2="354.4" y2="105.376"/>
	<line fill="#FFFFFF" stroke="#000000" stroke-miterlimit="10" x1="337" y1="92.226" x2="354.4" y2="92.226"/>
	<line fill="#FFFFFF" stroke="#000000" stroke-miterlimit="10" x1="337" y1="79.04" x2="354.4" y2="79.04"/>
	<line fill="#FFFFFF" stroke="#000000" stroke-miterlimit="10" x1="337" y1="65.889" x2="354.4" y2="65.889"/>
	<line fill="#FFFFFF" stroke="#000000" stroke-miterlimit="10" x1="337" y1="52.738" x2="354.4" y2="52.738"/>
	<line fill="#FFFFFF" stroke="#000000" stroke-miterlimit="10" x1="337" y1="39.552" x2="354.4" y2="39.552"/>
</g>
<g>
	<rect x="45.3" y="13.201" fill="#FFFFFF" stroke="#000000" stroke-miterlimit="10" width="136" height="156"/>
	<rect x="36.567" y="20.801" fill="#FFFFFF" stroke="#000000" stroke-miterlimit="10" width="136" height="156"/>
	<rect x="27.833" y="30.401" fill="#FFFFFF" stroke="#000000" stroke-miterlimit="10" width="136.001" height="156"/>
	<rect x="19.101" y="41.601" fill="#FFFFFF" stroke="#000000" stroke-miterlimit="10" width="136" height="156"/>
</g>
<rect x="39.2" y="64" fill="#ED1C24" stroke="#000000" stroke-miterlimit="10" width="17.6" height="18.4"/>
<g>
	<g>
		<path fill="none" stroke="#000000" stroke-miterlimit="10" d="M48,73.2c0,0,122.604-52.819,238.358-2.89"/>
		<g>
			<polygon points="292.8,73.2 282.055,72.947 285.845,70.165 285.307,65.496 			"/>
		</g>
	</g>
</g>
<text transform="matrix(1 0 0 1 208 41.6011)" font-family="'MyriadPro-Regular'" font-size="12">Feature extraction</text>
<g>
	<rect x="328.3" y="36.001" fill="#FFFFFF" stroke="#000000" stroke-miterlimit="10" width="17.4" height="144.8"/>
	<line fill="#FFFFFF" stroke="#000000" stroke-miterlimit="10" x1="328.3" y1="167.65" x2="345.7" y2="167.65"/>
	<line fill="#FFFFFF" stroke="#000000" stroke-miterlimit="10" x1="328.3" y1="154.464" x2="345.7" y2="154.464"/>
	<line fill="#FFFFFF" stroke="#000000" stroke-miterlimit="10" x1="328.3" y1="141.313" x2="345.7" y2="141.313"/>
	<line fill="#FFFFFF" stroke="#000000" stroke-miterlimit="10" x1="328.3" y1="128.163" x2="345.7" y2="128.163"/>
	<line fill="#FFFFFF" stroke="#000000" stroke-miterlimit="10" x1="328.3" y1="114.977" x2="345.7" y2="114.977"/>
	<line fill="#FFFFFF" stroke="#000000" stroke-miterlimit="10" x1="328.3" y1="101.826" x2="345.7" y2="101.826"/>
	<line fill="#FFFFFF" stroke="#000000" stroke-miterlimit="10" x1="328.3" y1="88.64" x2="345.7" y2="88.64"/>
	<line fill="#FFFFFF" stroke="#000000" stroke-miterlimit="10" x1="328.3" y1="75.489" x2="345.7" y2="75.489"/>
	<line fill="#FFFFFF" stroke="#000000" stroke-miterlimit="10" x1="328.3" y1="62.338" x2="345.7" y2="62.338"/>
	<line fill="#FFFFFF" stroke="#000000" stroke-miterlimit="10" x1="328.3" y1="49.152" x2="345.7" y2="49.152"/>
</g>
<text transform="matrix(1 0 0 1 45.3003 216.8008)" font-family="'MyriadPro-Regular'" font-size="12">Image Time Series</text>
<text transform="matrix(1 0 0 1 300.7993 216.8008)" font-family="'MyriadPro-Regular'" font-size="12">Feature vectors</text>
<g>
	<g>
		<line fill="none" stroke="#000000" stroke-miterlimit="10" x1="370.4" y1="128.163" x2="417.448" y2="128.163"/>
		<g>
			<path d="M415.653,128.163l-2.191-3.603l0.123-0.082l5.875,2.333c2.047,0.45,4.094,0.9,6.141,1.351
				c-2.047,0.45-4.094,0.9-6.141,1.351l-5.875,2.333l-0.123-0.062L415.653,128.163z"/>
		</g>
	</g>
</g>
<rect x="451.2" y="98.801" fill="none" stroke="#000000" stroke-miterlimit="10" width="124.8" height="62.799"/>
<text transform="matrix(1 0 0 1 470.3999 135.2007)" font-family="'MyriadPro-Regular'" font-size="12">Decision function</text>
<g>
	<rect x="319.6" y="47.201" fill="#FFFFFF" stroke="#000000" stroke-miterlimit="10" width="17.4" height="144.8"/>
	<line fill="#FFFFFF" stroke="#000000" stroke-miterlimit="10" x1="319.6" y1="178.85" x2="337" y2="178.85"/>
	<line fill="#FFFFFF" stroke="#000000" stroke-miterlimit="10" x1="319.6" y1="165.663" x2="337" y2="165.663"/>
	<line fill="#FFFFFF" stroke="#000000" stroke-miterlimit="10" x1="319.6" y1="152.513" x2="337" y2="152.513"/>
	<line fill="#FFFFFF" stroke="#000000" stroke-miterlimit="10" x1="319.6" y1="139.362" x2="337" y2="139.362"/>
	<line fill="#FFFFFF" stroke="#000000" stroke-miterlimit="10" x1="319.6" y1="126.176" x2="337" y2="126.176"/>
	<line fill="#FFFFFF" stroke="#000000" stroke-miterlimit="10" x1="319.6" y1="113.025" x2="337" y2="113.025"/>
	<line fill="#FFFFFF" stroke="#000000" stroke-miterlimit="10" x1="319.6" y1="99.839" x2="337" y2="99.839"/>
	<line fill="#FFFFFF" stroke="#000000" stroke-miterlimit="10" x1="319.6" y1="86.688" x2="337" y2="86.688"/>
	<line fill="#FFFFFF" stroke="#000000" stroke-miterlimit="10" x1="319.6" y1="73.538" x2="337" y2="73.538"/>
	<line fill="#FFFFFF" stroke="#000000" stroke-miterlimit="10" x1="319.6" y1="60.352" x2="337" y2="60.352"/>
</g>
<g>
	<g>
		<line fill="none" stroke="#000000" stroke-miterlimit="10" x1="585.4" y1="128.163" x2="632.448" y2="128.163"/>
		<g>
			<path d="M630.653,128.163l-2.191-3.603l0.123-0.082l5.875,2.333c2.047,0.45,4.094,0.9,6.141,1.351
				c-2.047,0.45-4.094,0.9-6.141,1.352l-5.875,2.333l-0.123-0.062L630.653,128.163z"/>
		</g>
	</g>
</g>
<text transform="matrix(1 0 0 1 648.7993 118.1631)" font-family="'MyriadPro-Regular'" font-size="12">Continuous value</text>
<text transform="matrix(1 0 0 1 648.7993 138.1631)" font-family="'MyriadPro-Regular'" font-size="12">Change or no change</text>
</svg>
