<?xml version="1.0" encoding="UTF-8" standalone="no"?>
<svg
   xmlns:dc="http://purl.org/dc/elements/1.1/"
   xmlns:cc="http://creativecommons.org/ns#"
   xmlns:rdf="http://www.w3.org/1999/02/22-rdf-syntax-ns#"
   xmlns:svg="http://www.w3.org/2000/svg"
   xmlns="http://www.w3.org/2000/svg"
   xmlns:sodipodi="http://sodipodi.sourceforge.net/DTD/sodipodi-0.dtd"
   xmlns:inkscape="http://www.inkscape.org/namespaces/inkscape"
   width="2500"
   height="2500"
   viewBox="0 0 192.756 192.756"
   version="1.1"
   id="svg12"
   sodipodi:docname="logo_onera.svg"
   inkscape:version="0.92.3 (2405546, 2018-03-11)">
  <metadata
     id="metadata18">
    <rdf:RDF>
      <cc:Work
         rdf:about="">
        <dc:format>image/svg+xml</dc:format>
        <dc:type
           rdf:resource="http://purl.org/dc/dcmitype/StillImage" />
      </cc:Work>
    </rdf:RDF>
  </metadata>
  <defs
     id="defs16" />
  <sodipodi:namedview
     pagecolor="#ffffff"
     bordercolor="#666666"
     borderopacity="1"
     objecttolerance="10"
     gridtolerance="10"
     guidetolerance="10"
     inkscape:pageopacity="0"
     inkscape:pageshadow="2"
     inkscape:window-width="640"
     inkscape:window-height="480"
     id="namedview14"
     showgrid="false"
     inkscape:zoom="0.0944"
     inkscape:cx="1250"
     inkscape:cy="1250"
     inkscape:window-x="0"
     inkscape:window-y="0"
     inkscape:window-maximized="0"
     inkscape:current-layer="g10" />
  <g
     fill-rule="evenodd"
     clip-rule="evenodd"
     id="g10">
    <path
       d="M56.292 78.295c-5.973 0-9.383 3.274-9.383 6.465 0 4.136 4.193 6.686 9.339 6.686 5.5 0 9.649-2.698 9.649-6.598-.001-3.308-3.633-6.553-9.605-6.553zm-.443 12.08c-.829 0-7.128-.896-7.128-5.421 0-3.107 3.509-5.598 7.527-5.598 4.963 0 7.837 2.742 7.837 5.73-.001 2.753-3.037 5.289-8.236 5.289zM86.371 78.662h2.067v12.896l-13.336-9.911v9.644h-1.723V78.49l12.992 10.179V78.662zM96.187 78.662h8.745v1.091h-6.68v4.592h5.779v1.262h-5.779v4.516h7.674v1.168h-9.739V78.662zM143.906 91.291h1.988l-9.012-12.896-9.029 12.896h1.988l3.254-4.593h7.48l3.331 4.593zm-9.912-5.951l2.793-4.324 3.062 4.324h-5.855z"
       id="path4" />
    <path
       fill="#3b68af"
       d="M42.786 97.777h107.165l-.994-1.168H43.704l-.918 1.168zM3.179 114.461l1.454-.363 1.435-.44 1.454-.365 1.531-.363 1.435-.364 1.454-.363 1.435-.363 1.455-.363 1.434-.346 1.455-.363 1.53-.268 1.435-.363 1.454-.268 1.435-.287 1.531-.344 1.454-.287 2.162-.441 2.067-.459 2.162-.363 2.181-.44 2.162-.363 2.162-.364 2.163-.365 2.161-.363 2.181-.268 2.163-.363 2.162-.267 2.162-.268 2.162-.268 2.162-.269 2.181-.192 2.162-.267 2.258-.172 2.162-.191 2.162-.172 2.162-.172 2.258-.192 2.162-.171 2.162-.096 2.258-.096 2.162-.096 2.181-.078 2.162-.093 2.258-.096h2.162l2.143-.078h8.84l2.258.078h2.16l2.258.096 2.258.093 2.162.078 2.258.096 2.162.096 2.258.096 2.162.171 2.162.192 2.258.172 2.162.172 2.162.191 2.258.172 2.182.267 2.162.192 2.162.269 2.258.268 2.162.268 2.162.267 2.162.363 2.162.268 2.182.363 2.162.365 2.162.364 2.16.363 2.164.44 2.084.363 2.162.459 2.162.441 1.455.287 1.532.344 1.433.287 1.531.268 1.456.363 1.433.268 1.531.363 1.454.346 1.435.363 1.455.363 1.434.363 1.455.364 1.531.363 1.434.365 1.455.44 1.435.363.268-1.168-1.436-.459-1.453-.363-1.531-.44-1.436-.363-1.453-.363-1.435-.459-1.455-.346-1.434-.363-1.455-.364-1.531-.363-1.434-.363-1.455-.268-1.435-.365-1.53-.363-1.455-.268-1.529-.363-2.162-.44-2.164-.363-2.16-.365-2.163-.363-2.181-.364-2.162-.363-2.162-.344-2.163-.365-2.162-.267-2.162-.288-2.181-.343-2.258-.287-2.162-.172-2.162-.268-2.258-.267-2.162-.192-2.258-.267-2.162-.174-2.162-.19-2.258-.174-2.162-.191-2.258-.076-2.162-.192-2.258-.095-2.258-.076-2.162-.096-2.258-.096-2.16-.076h-2.258l-2.258-.096h-8.84l-2.143.096h-2.258l-2.162.076-2.162.096-2.257.096-2.182.076-2.162.095-2.258.192-2.162.076-2.258.191-2.162.174-2.162.19-2.258.174-2.161.267-2.163.192-2.162.267-2.257.268-2.163.172-2.181.287-2.162.343-2.258.288-2.162.267-2.162.365-2.162.344-2.162.363-2.162.364-2.181.363-2.162.365-2.162.363-2.162.44-1.454.363-1.531.268-1.435.363-1.454.365-1.435.268-1.531.363-1.454.363-1.435.364-1.454.363-1.435.346-1.435.363-1.454.459-1.531.363-1.454.364-1.435.439-1.436.363.345 1.264z"
       id="path6" />
    <path
       d="M117.119 86.431l.979-.107c.783-.142 1.029-.166 1.867-.617 1.125-.606 1.18-.77 1.693-1.417.416-.698.904-1.734.365-2.918-.41-.906-1.119-1.468-1.6-1.75-2.471-1.448-7.559-.953-7.559-.953l.006 12.622h1.723v-4.956l6.141 4.956h2.238l-5.853-4.86zm-2.541-.984v-5.681s1.934-.108 3.006.249c.648.216 1.08.25 1.91.814.986.671.947 1.777.947 1.777s.111.46-.615 1.329c-.598.714-1.354.978-2.059 1.179-1.035.295-3.189.333-3.189.333z"
       id="path8" />
  </g>
</svg>
