<?xml version="1.0" encoding="utf-8"?>
<!-- Generator: Adobe Illustrator 16.0.3, SVG Export Plug-In . SVG Version: 6.00 Build 0)  -->
<!DOCTYPE svg PUBLIC "-//W3C//DTD SVG 1.1//EN" "http://www.w3.org/Graphics/SVG/1.1/DTD/svg11.dtd">
<svg version="1.1" id="Calque_1" xmlns="http://www.w3.org/2000/svg" xmlns:xlink="http://www.w3.org/1999/xlink" x="0px" y="0px"
	 width="404.979px" height="220.489px" viewBox="0 0 404.979 220.489" enable-background="new 0 0 404.979 220.489"
	 xml:space="preserve">
<path fill="#FFFFFF" d="M-91.199,13.111"/>
<path fill="none" stroke="#000000" stroke-miterlimit="10" d="M18.606,203.928c0,0,27-188,202-185c0,0,128-14,173,80.5
	c0,0-17-56.1-78,30.7c0,0-26,47.8-25,73.8c0,0-153-120-272,6"/>
<g>
	<g>
		<line fill="none" stroke="#ED1C24" stroke-miterlimit="10" x1="130.401" y1="97.911" x2="136.294" y2="96.781"/>
		
			<line fill="none" stroke="#ED1C24" stroke-miterlimit="10" stroke-dasharray="12.4237,12.4237" x1="148.495" y1="94.441" x2="264.408" y2="72.211"/>
		<line fill="none" stroke="#ED1C24" stroke-miterlimit="10" x1="270.509" y1="71.041" x2="276.401" y2="69.911"/>
	</g>
</g>
<g>
	<g>
		
			<line fill="none" stroke="#000000" stroke-miterlimit="10" stroke-dasharray="12" x1="125.401" y1="93.911" x2="134.401" y2="102.911"/>
	</g>
	
		<line fill="none" stroke="#000000" stroke-miterlimit="10" stroke-dasharray="12" x1="125.401" y1="102.911" x2="134.401" y2="93.911"/>
</g>
<g>
	<g>
		
			<line fill="none" stroke="#000000" stroke-miterlimit="10" stroke-dasharray="12" x1="271.901" y1="65.411" x2="280.901" y2="74.411"/>
	</g>
	
		<line fill="none" stroke="#000000" stroke-miterlimit="10" stroke-dasharray="12" x1="271.901" y1="74.411" x2="280.901" y2="65.411"/>
</g>
<path fill="none" stroke="#2E3192" stroke-miterlimit="10" stroke-dasharray="12" d="M129.901,98.411c0,0,47-53.5,146.5-28.5"/>
<text transform="matrix(1 0 0 1 119.4014 117.4111)" font-family="'MyriadPro-Regular'" font-size="12">ΣA</text>
<path fill="none" d="M125.401,87.411c0,0,56.5-62,146.5-29.5"/>
<text transform="matrix(0.4946 -0.3087 0.3087 0.4946 150.397 75.0918)" font-family="'MyriadPro-Regular'" font-size="18"> </text>
<text transform="matrix(0.4993 -0.301 0.301 0.4993 152.1846 73.9756)" font-family="'MyriadPro-Regular'" font-size="18"> </text>
<text transform="matrix(0.5074 -0.2872 0.2872 0.5074 153.8921 72.916)" font-family="'MyriadPro-Regular'" font-size="18">R</text>
<text transform="matrix(0.5152 -0.2728 0.2728 0.5152 158.6025 70.2715)" font-family="'MyriadPro-Regular'" font-size="18">i</text>
<text transform="matrix(0.5224 -0.2588 0.2588 0.5224 160.582 69.1992)" font-family="'MyriadPro-Regular'" font-size="18">e</text>
<text transform="matrix(0.5346 -0.2327 0.2327 0.5346 164.9316 66.9844)" font-family="'MyriadPro-Regular'" font-size="18">m</text>
<text transform="matrix(0.5454 -0.2061 0.2061 0.5454 172.6094 63.6816)" font-family="'MyriadPro-Regular'" font-size="18">a</text>
<text transform="matrix(0.5531 -0.1844 0.1844 0.5531 177.0596 61.9854)" font-family="'MyriadPro-Regular'" font-size="18">n</text>
<text transform="matrix(0.5604 -0.1608 0.1608 0.5604 182.2598 60.2451)" font-family="'MyriadPro-Regular'" font-size="18">n</text>
<text transform="matrix(0.565 -0.1437 0.1437 0.565 187.6455 58.7207)" font-family="'MyriadPro-Regular'" font-size="18">i</text>
<text transform="matrix(0.5688 -0.128 0.128 0.5688 189.8105 58.1494)" font-family="'MyriadPro-Regular'" font-size="18">a</text>
<text transform="matrix(0.5735 -0.105 0.105 0.5735 194.4326 57.0928)" font-family="'MyriadPro-Regular'" font-size="18">n</text>
<text transform="matrix(0.5763 -0.0879 0.0879 0.5763 199.9385 56.1084)" font-family="'MyriadPro-Regular'" font-size="18"> </text>
<text transform="matrix(0.5787 -0.0704 0.0704 0.5787 201.9082 55.7773)" font-family="'MyriadPro-Regular'" font-size="18">d</text>
<text transform="matrix(0.5807 -0.0514 0.0514 0.5807 207.5264 55.1143)" font-family="'MyriadPro-Regular'" font-size="18">(</text>
<text transform="matrix(0.5821 -0.0326 0.0326 0.5821 210.2549 54.8457)" font-family="'MyriadPro-Regular'" font-size="18">Σ</text>
<text transform="matrix(0.583 -0.0067 0.0067 0.583 215.6719 54.5264)" font-family="'MyriadPro-Regular'" font-size="18">A</text>
<text transform="matrix(0.5829 0.0115 -0.0115 0.5829 221.8564 54.4863)" font-family="'MyriadPro-Regular'" font-size="18">,</text>
<text transform="matrix(0.5823 0.028 -0.028 0.5823 223.8086 54.4961)" font-family="'MyriadPro-Regular'" font-size="18">Σ</text>
<text transform="matrix(0.5807 0.0516 -0.0516 0.5807 229.2979 54.7559)" font-family="'MyriadPro-Regular'" font-size="18">B</text>
<text transform="matrix(0.5789 0.0689 -0.0689 0.5789 234.708 55.252)" font-family="'MyriadPro-Regular'" font-size="18">)</text>
<text transform="matrix(1 0 0 1 288.9014 69.9111)" font-family="'MyriadPro-Regular'" font-size="12">ΣB</text>
<line fill="none" x1="145.401" y1="112.911" x2="271.901" y2="90.411"/>
<text transform="matrix(0.9845 -0.1751 0.1751 0.9845 168.7451 108.7588)"><tspan x="0" y="0" font-family="'MyriadPro-Regular'" font-size="12">E</tspan><tspan x="5.906" y="0.001" font-family="'MyriadPro-Regular'" font-size="12">u</tspan><tspan x="12.523" y="0.001" font-family="'MyriadPro-Regular'" font-size="12" rotate="0.001">c</tspan><tspan x="17.903" y="0" font-family="'MyriadPro-Regular'" font-size="12" rotate="0.001">l</tspan><tspan x="20.726" y="0.001" font-family="'MyriadPro-Regular'" font-size="12" rotate="0.001">i</tspan><tspan x="23.547" y="0.001" font-family="'MyriadPro-Regular'" font-size="12">d</tspan><tspan x="30.317" y="0.001" font-family="'MyriadPro-Regular'" font-size="12" rotate="0.001">e</tspan><tspan x="36.322" y="0.001" font-family="'MyriadPro-Regular'" font-size="12" rotate="0">a</tspan><tspan x="42.116" y="0" font-family="'MyriadPro-Regular'" font-size="12" rotate="0.001">n</tspan><tspan x="48.781" y="0.001" font-family="'MyriadPro-Regular'" font-size="12" rotate="0.001"> </tspan><tspan x="51.324" y="0.001" font-family="'MyriadPro-Regular'" font-size="12" rotate="0">d</tspan><tspan x="58.088" y="0" font-family="'MyriadPro-Regular'" font-size="12" rotate="0">(</tspan><tspan x="61.514" y="0.001" font-family="'MyriadPro-Regular'" font-size="12" rotate="0.001">Σ</tspan><tspan x="68.14" y="0" font-family="'MyriadPro-Regular'" font-size="12" rotate="0.001">A</tspan><tspan x="75.476" y="0.002" font-family="'MyriadPro-Regular'" font-size="12" rotate="0.001">,</tspan><tspan x="77.971" y="0.001" font-family="'MyriadPro-Regular'" font-size="12" rotate="0.001">Σ</tspan><tspan x="84.594" y="0.001" font-family="'MyriadPro-Regular'" font-size="12" rotate="0.001">B</tspan><tspan x="91.099" y="0" font-family="'MyriadPro-Regular'" font-size="12" rotate="0.001">)</tspan></text>
</svg>
