<?xml version="1.0" encoding="utf-8"?>
<!-- Generator: Adobe Illustrator 16.0.3, SVG Export Plug-In . SVG Version: 6.00 Build 0)  -->
<!DOCTYPE svg PUBLIC "-//W3C//DTD SVG 1.1//EN" "http://www.w3.org/Graphics/SVG/1.1/DTD/svg11.dtd">
<svg version="1.1" id="Calque_1" xmlns="http://www.w3.org/2000/svg" xmlns:xlink="http://www.w3.org/1999/xlink" x="0px" y="0px"
	 width="260px" height="298.667px" viewBox="0 0 260 298.667" enable-background="new 0 0 260 298.667" xml:space="preserve">
<g>
	<line fill="#FFFFFF" x1="49.333" y1="285.333" x2="49.333" y2="6.667"/>
	<g>
		<line fill="none" stroke="#000000" stroke-miterlimit="10" x1="49.333" y1="285.333" x2="49.333" y2="22.971"/>
		<g>
			<path d="M49.333,26.561l-7.206,4.383l-0.163-0.246l4.667-11.75c0.9-4.094,1.801-8.188,2.702-12.281
				c0.9,4.094,1.801,8.188,2.702,12.281l4.667,11.75l-0.123,0.246L49.333,26.561z"/>
		</g>
	</g>
</g>
<g>
	<line fill="#FFFFFF" x1="10" y1="233.333" x2="239.334" y2="233.333"/>
	<g>
		<line fill="none" stroke="#000000" stroke-miterlimit="10" x1="10" y1="233.333" x2="223.029" y2="233.333"/>
		<g>
			<path d="M219.439,233.333l-4.383-7.206l0.246-0.163l11.75,4.667c4.094,0.9,8.188,1.801,12.281,2.702
				c-4.094,0.9-8.188,1.801-12.281,2.702l-11.75,4.667l-0.246-0.123L219.439,233.333z"/>
		</g>
	</g>
</g>
<g>
	<line fill="#FFFFFF" x1="49.333" y1="233.333" x2="68.667" y2="193.333"/>
	<g>
		<line fill="none" stroke="#000000" stroke-miterlimit="10" x1="49.333" y1="233.333" x2="50.421" y2="231.083"/>
		
			<line fill="none" stroke="#000000" stroke-miterlimit="10" stroke-dasharray="4.174,8.348" x1="54.054" y1="223.567" x2="63.136" y2="204.776"/>
		<line fill="none" stroke="#000000" stroke-miterlimit="10" x1="64.953" y1="201.018" x2="66.041" y2="198.767"/>
		<g>
			<path d="M68.667,193.333c-0.287,3.016-0.202,6.97,0.563,9.766l-3.534-3.619l-5.029-0.521
				C63.332,197.822,66.483,195.432,68.667,193.333z"/>
		</g>
	</g>
</g>
<g>
	<g>
		<line fill="none" stroke="#000000" stroke-miterlimit="10" x1="66.865" y1="197.063" x2="68.616" y2="198.847"/>
		
			<line fill="none" stroke="#000000" stroke-miterlimit="10" stroke-dasharray="4.7804,9.5608" x1="75.312" y1="205.671" x2="82.008" y2="212.496"/>
		<line fill="none" stroke="#000000" stroke-miterlimit="10" x1="85.356" y1="215.909" x2="87.106" y2="217.693"/>
		<g>
			<path d="M91.333,222c-2.741-1.289-6.492-2.545-9.381-2.771l4.599-2.103l2.189-4.558C88.912,215.462,90.096,219.236,91.333,222z"
				/>
		</g>
	</g>
</g>
<g>
	<g>
		<line fill="none" stroke="#000000" stroke-miterlimit="10" x1="91.333" y1="222" x2="92.964" y2="220.105"/>
		
			<line fill="none" stroke="#000000" stroke-miterlimit="10" stroke-dasharray="5.3567,10.7133" x1="99.952" y1="211.985" x2="106.939" y2="203.864"/>
		<line fill="none" stroke="#000000" stroke-miterlimit="10" x1="110.433" y1="199.803" x2="112.063" y2="197.909"/>
		<g>
			<path d="M116,193.333c-1.054,2.84-1.989,6.684-1.97,9.581l-2.483-4.406l-4.726-1.797C109.689,196.297,113.35,194.799,116,193.333
				z"/>
		</g>
	</g>
</g>
<g>
	<g>
		<line fill="none" stroke="#000000" stroke-miterlimit="10" x1="116" y1="193.333" x2="114.13" y2="191.674"/>
		
			<line fill="none" stroke="#000000" stroke-miterlimit="10" stroke-dasharray="4.7496,9.4991" x1="107.025" y1="185.37" x2="78.604" y2="160.151"/>
		<line fill="none" stroke="#000000" stroke-miterlimit="10" x1="75.051" y1="156.999" x2="73.181" y2="155.339"/>
		<g>
			<path d="M68.667,151.333c2.824,1.097,6.652,2.091,9.55,2.115l-4.443,2.416l-1.869,4.698
				C71.535,157.689,70.092,154.005,68.667,151.333z"/>
		</g>
	</g>
</g>
<g>
	<g>
		<line fill="none" stroke="#000000" stroke-miterlimit="10" x1="68.667" y1="151.333" x2="68.667" y2="148.833"/>
		<line fill="none" stroke="#000000" stroke-miterlimit="10" x1="68.667" y1="142.202" x2="68.667" y2="139.702"/>
		<g>
			<path d="M68.667,133.667c1.054,2.84,2.852,6.363,4.756,8.547l-4.756-1.72l-4.755,1.72
				C65.816,140.03,67.614,136.506,68.667,133.667z"/>
		</g>
	</g>
</g>
<g>
	<g>
		<line fill="none" stroke="#000000" stroke-miterlimit="10" x1="68.667" y1="133.667" x2="71.146" y2="133.995"/>
		
			<line fill="none" stroke="#000000" stroke-miterlimit="10" stroke-dasharray="5.1104,10.2207" x1="81.277" y1="135.337" x2="121.806" y2="140.708"/>
		<line fill="none" stroke="#000000" stroke-miterlimit="10" x1="126.872" y1="141.379" x2="129.351" y2="141.708"/>
		<g>
			<path d="M135.333,142.5c-2.954,0.672-6.683,1.991-9.098,3.592l2.33-4.488l-1.081-4.94
				C129.4,138.838,132.657,141.083,135.333,142.5z"/>
		</g>
	</g>
</g>
<g>
	<g>
		<line fill="none" stroke="#000000" stroke-miterlimit="10" x1="135.333" y1="142.5" x2="133.908" y2="144.554"/>
		
			<line fill="none" stroke="#000000" stroke-miterlimit="10" stroke-dasharray="2.7028,5.4057" x1="130.825" y1="148.995" x2="127.742" y2="153.435"/>
		<line fill="none" stroke="#000000" stroke-miterlimit="10" x1="126.201" y1="155.656" x2="124.775" y2="157.708"/>
		<g>
			<path d="M121.333,162.667c0.754-2.934,1.287-6.854,0.968-9.733l2.926,4.125l4.887,1.299
				C127.304,159.065,123.818,160.934,121.333,162.667z"/>
		</g>
	</g>
</g>
<g>
	<g>
		<line fill="none" stroke="#000000" stroke-miterlimit="10" x1="121.333" y1="162.667" x2="122.647" y2="164.793"/>
		
			<line fill="none" stroke="#000000" stroke-miterlimit="10" stroke-dasharray="3.1214,6.2427" x1="125.928" y1="170.105" x2="129.208" y2="175.417"/>
		<line fill="none" stroke="#000000" stroke-miterlimit="10" x1="130.849" y1="178.072" x2="132.162" y2="180.199"/>
		<g>
			<path d="M135.333,185.333c-2.389-1.862-5.77-3.915-8.538-4.772l4.95-1.036l3.141-3.962
				C134.415,178.421,134.737,182.364,135.333,185.333z"/>
		</g>
	</g>
</g>
<g>
	<g>
		<line fill="none" stroke="#000000" stroke-miterlimit="10" x1="135.333" y1="186.292" x2="137.023" y2="184.449"/>
		
			<line fill="none" stroke="#000000" stroke-miterlimit="10" stroke-dasharray="4.8252,9.6503" x1="143.546" y1="177.336" x2="169.637" y2="148.888"/>
		<line fill="none" stroke="#000000" stroke-miterlimit="10" x1="172.898" y1="145.332" x2="174.588" y2="143.49"/>
		<g>
			<path d="M178.667,139.042c-1.143,2.805-2.199,6.617-2.272,9.514l-2.342-4.482l-4.667-1.945
				C172.266,141.804,175.972,140.423,178.667,139.042z"/>
		</g>
	</g>
</g>
<g>
	<g>
		<line fill="none" stroke="#000000" stroke-miterlimit="10" x1="178.667" y1="138.083" x2="177.188" y2="136.068"/>
		
			<line fill="none" stroke="#000000" stroke-miterlimit="10" stroke-dasharray="5.0942,10.1883" x1="171.163" y1="127.852" x2="147.061" y2="94.99"/>
		<line fill="none" stroke="#000000" stroke-miterlimit="10" x1="144.048" y1="90.882" x2="142.569" y2="88.867"/>
		<g>
			<path d="M139,84c2.529,1.667,6.063,3.445,8.89,4.08l-4.852,1.426l-2.817,4.199C140.465,90.817,139.831,86.913,139,84z"/>
		</g>
	</g>
</g>
<g>
	<g>
		<line fill="none" stroke="#000000" stroke-miterlimit="10" x1="139" y1="84" x2="139" y2="86.5"/>
		
			<line fill="none" stroke="#000000" stroke-miterlimit="10" stroke-dasharray="4.993,9.9859" x1="139" y1="96.486" x2="139" y2="106.472"/>
		<line fill="none" stroke="#000000" stroke-miterlimit="10" x1="139" y1="111.465" x2="139" y2="113.965"/>
		<g>
			<path d="M139,120c-1.054-2.84-2.852-6.363-4.756-8.547l4.756,1.72l4.755-1.72C141.851,113.637,140.053,117.16,139,120z"/>
		</g>
	</g>
</g>
<g>
	<g>
		<line fill="none" stroke="#000000" stroke-miterlimit="10" x1="139" y1="120" x2="141.377" y2="119.227"/>
		
			<line fill="none" stroke="#000000" stroke-miterlimit="10" stroke-dasharray="4.2866,8.5733" x1="149.53" y1="116.575" x2="182.141" y2="105.966"/>
		<line fill="none" stroke="#000000" stroke-miterlimit="10" x1="186.218" y1="104.64" x2="188.595" y2="103.867"/>
		<g>
			<path d="M194.334,102c-2.375,1.88-5.169,4.68-6.657,7.167l0.165-5.055l-3.106-3.989C187.401,101.258,191.308,101.877,194.334,102
				z"/>
		</g>
	</g>
</g>
<g>
	<g>
		<line fill="none" stroke="#000000" stroke-miterlimit="10" x1="194.615" y1="102" x2="195.533" y2="104.325"/>
		
			<line fill="none" stroke="#000000" stroke-miterlimit="10" stroke-dasharray="4.613,9.226" x1="198.922" y1="112.907" x2="217.557" y2="160.104"/>
		<line fill="none" stroke="#000000" stroke-miterlimit="10" x1="219.251" y1="164.395" x2="220.169" y2="166.72"/>
		<g>
			<path d="M222.386,172.333c-2.023-2.255-4.989-4.871-7.563-6.203l5.056-0.147l3.79-3.346
				C222.7,165.368,222.322,169.305,222.386,172.333z"/>
		</g>
	</g>
</g>
<g>
	<g>
		<line fill="none" stroke="#000000" stroke-miterlimit="10" x1="49.333" y1="233.333" x2="214.697" y2="175.043"/>
		<g>
			<path d="M213.004,175.64l-3.265-2.669l0.089-0.118l6.317,0.248c2.08-0.256,4.16-0.512,6.24-0.768
				c-1.781,1.105-3.562,2.21-5.342,3.315l-4.766,4.154l-0.137-0.018L213.004,175.64z"/>
		</g>
	</g>
</g>
</svg>
